<svg width="23" height="23" viewBox="0 0 23 23" fill="none" xmlns="http://www.w3.org/2000/svg">
<g id="icon-new-post.da483e9d9559c3b4e912.svg" clip-path="url(#clip0_1_881)">
<g id="Group" filter="url(#filter0_d_1_881)">
<path id="Vector" d="M18.675 0.798096H2.67505C1.57048 0.798096 0.675049 1.69353 0.675049 2.7981V17.7981C0.675049 18.9027 1.57048 19.7981 2.67505 19.7981H18.675C19.7796 19.7981 20.675 18.9027 20.675 17.7981V2.7981C20.675 1.69353 19.7796 0.798096 18.675 0.798096Z" fill="#AEEED0"/>
<path id="Vector_2" fill-rule="evenodd" clip-rule="evenodd" d="M0.675049 2.7901C0.675049 1.6901 1.57305 0.798096 2.66505 0.798096H18.685C19.783 0.798096 20.675 1.6911 20.675 2.7901V15.7981H0.675049V2.7901Z" fill="white"/>
<path id="Vector_3" fill-rule="evenodd" clip-rule="evenodd" d="M9.67505 7.7981H6.67505V9.7981H9.67505V12.7981H11.675V9.7981H14.675V7.7981H11.675V4.7981H9.67505V7.7981Z" fill="#1BB76E"/>
</g>
</g>
<defs>
<filter id="filter0_d_1_881" x="-5.32495" y="-1.2019" width="32" height="31" filterUnits="userSpaceOnUse" color-interpolation-filters="sRGB">
<feFlood flood-opacity="0" result="BackgroundImageFix"/>
<feColorMatrix in="SourceAlpha" type="matrix" values="0 0 0 0 0 0 0 0 0 0 0 0 0 0 0 0 0 0 127 0" result="hardAlpha"/>
<feOffset dy="4"/>
<feGaussianBlur stdDeviation="3"/>
<feColorMatrix type="matrix" values="0 0 0 0 0.105882 0 0 0 0 0.109804 0 0 0 0 0.117647 0 0 0 0.21 0"/>
<feBlend mode="normal" in2="BackgroundImageFix" result="effect1_dropShadow_1_881"/>
<feBlend mode="normal" in="SourceGraphic" in2="effect1_dropShadow_1_881" result="shape"/>
</filter>
<clipPath id="clip0_1_881">
<rect width="22" height="22" fill="white" transform="translate(0.675049 0.798096)"/>
</clipPath>
</defs>
</svg>
