<svg width="22" height="21" viewBox="0 0 22 21" fill="none" xmlns="http://www.w3.org/2000/svg">
<g id="icon-search.3bca12abe700ae5ca910.svg" clip-path="url(#clip0_1_893)">
<g id="Group">
<path id="Vector" fill-rule="evenodd" clip-rule="evenodd" d="M9.49108 0.298096C4.67108 0.298096 0.765076 4.1661 0.765076 8.9371C0.765076 13.7071 4.67208 17.5751 9.49108 17.5751C14.3111 17.5751 18.2171 13.7081 18.2171 8.9371C18.2171 4.1661 14.3101 0.298096 9.49108 0.298096ZM9.49108 2.6021C13.0201 2.6021 15.8911 5.4431 15.8911 8.9371C15.8911 12.4301 13.0201 15.2721 9.49108 15.2721C5.96208 15.2721 3.09108 12.4301 3.09108 8.9371C3.09108 5.4431 5.96208 2.6021 9.49108 2.6021Z" fill="white"/>
<path id="Vector_2" fill-rule="evenodd" clip-rule="evenodd" d="M19.1071 19.2621L15.1061 15.2641C14.9981 15.1577 14.9123 15.031 14.8537 14.8911C14.7951 14.7513 14.765 14.6012 14.765 14.4496C14.765 14.298 14.7951 14.1479 14.8537 14.0081C14.9123 13.8682 14.9981 13.7415 15.1061 13.6351C15.3252 13.4189 15.6207 13.2976 15.9286 13.2976C16.2365 13.2976 16.5319 13.4189 16.7511 13.6351L20.7511 17.6331C21.2061 18.0831 21.2061 18.8131 20.7511 19.2621C20.5324 19.4786 20.2368 19.5998 19.9291 19.5991C19.6321 19.5991 19.3331 19.4871 19.1071 19.2621Z" fill="white"/>
</g>
</g>
<defs>
<clipPath id="clip0_1_893">
<rect width="21" height="20" fill="white" transform="translate(0.765076 0.298096)"/>
</clipPath>
</defs>
</svg>
